<svg width="222" height="56" viewBox="0 0 222 56" fill="none" xmlns="http://www.w3.org/2000/svg">
<path d="M6.31693 31.1336C18.9598 31.1511 31.6179 31.1716 44.2597 31.194C46.0729 31.1987 47.8923 31.1994 49.7055 31.2041C53.9483 31.2088 53.8498 24.8733 49.607 24.8686C36.9641 24.8511 24.3009 24.8295 11.6642 24.8082C9.84591 24.8025 8.03162 24.8027 6.21838 24.7981C1.97979 24.7738 2.09868 31.1133 6.31693 31.1336Z" fill="#2087FF"/>
<path d="M24.7013 6.77599C24.683 19.1709 24.6617 31.5809 24.6383 43.9748C24.6335 45.7524 24.6327 47.5362 24.6278 49.3138C24.6229 53.4735 31.2223 53.3768 31.2273 49.2172C31.2455 36.8223 31.268 24.4074 31.2902 12.0184C31.2962 10.2358 31.2959 8.45705 31.3007 6.67937C31.3261 2.52389 24.7224 2.64045 24.7013 6.77599Z" fill="#2087FF"/>
<path d="M14.5092 11.0717C20.7442 21.907 26.984 32.7568 33.214 43.5937C34.1064 45.1488 35.0052 46.7071 35.8975 48.2622C37.9909 51.8978 43.5788 48.5591 41.4854 44.9235C35.2505 34.0883 29.009 23.2335 22.7806 12.4016C21.8867 10.8416 20.9895 9.28812 20.0972 7.73303C18.0233 4.09098 12.4418 7.4492 14.5092 11.0717Z" fill="#2087FF"/>
<path d="M7.85252 20.0851C18.6697 26.3512 29.4985 32.6276 40.3123 38.8975C41.8626 39.7981 43.4202 40.6983 44.9705 41.5989C48.6013 43.7007 51.7712 38.0153 48.1405 35.9135C37.3232 29.6474 26.4906 23.3676 15.6806 17.1011C14.1265 16.1971 12.5728 15.3003 11.0225 14.3997C7.40538 12.2826 4.25078 17.9816 7.85252 20.0851Z" fill="#2087FF"/>
<path d="M11.0717 41.4908C21.907 35.2559 32.7568 29.016 43.5937 22.786C45.1488 21.8937 46.7071 20.9949 48.2622 20.1025C51.8978 18.0091 48.5591 12.4212 44.9235 14.5146C34.0883 20.7496 23.2335 26.991 12.4016 33.2194C10.8416 34.1134 9.28812 35.0106 7.73303 35.9029C4.09098 37.9768 7.4492 43.5583 11.0717 41.4908Z" fill="#2087FF"/>
<path d="M20.085 48.1475C26.3512 37.3303 32.6275 26.5015 38.8975 15.6877C39.798 14.1374 40.6982 12.5798 41.5988 11.0295C43.7006 7.39874 38.0152 4.2288 35.9134 7.85954C29.6473 18.6768 23.3675 29.5094 17.101 40.3194C16.197 41.8735 15.3003 43.4272 14.3997 44.9775C12.2825 48.5946 17.9816 51.7492 20.085 48.1475Z" fill="#2087FF"/>
<path d="M89.2184 11.2727V44H83.2418L69.0036 23.4016H68.7638V44H61.8445V11.2727H67.9169L82.0433 31.8551H82.331V11.2727H89.2184ZM105.994 44.4794C103.469 44.4794 101.295 43.968 99.4736 42.9453C97.6626 41.9119 96.267 40.4524 95.2868 38.5668C94.3067 36.6705 93.8167 34.4279 93.8167 31.8391C93.8167 29.3143 94.3067 27.0984 95.2868 25.1914C96.267 23.2844 97.6466 21.7983 99.4257 20.733C101.215 19.6676 103.314 19.1349 105.722 19.1349C107.341 19.1349 108.849 19.396 110.244 19.918C111.65 20.4293 112.876 21.2017 113.92 22.2351C114.974 23.2685 115.795 24.5682 116.381 26.1342C116.967 27.6896 117.26 29.5114 117.26 31.5994V33.4691H96.5333V29.2504H110.851C110.851 28.2702 110.638 27.402 110.212 26.6456C109.786 25.8892 109.195 25.2979 108.438 24.8718C107.693 24.435 106.824 24.2166 105.834 24.2166C104.8 24.2166 103.884 24.4563 103.085 24.9357C102.297 25.4045 101.679 26.0384 101.231 26.8374C100.784 27.6257 100.555 28.5046 100.544 29.4741V33.4851C100.544 34.6996 100.768 35.7489 101.215 36.6332C101.674 37.5174 102.318 38.1992 103.149 38.6786C103.98 39.158 104.965 39.3977 106.105 39.3977C106.862 39.3977 107.554 39.2912 108.183 39.0781C108.811 38.8651 109.349 38.5455 109.797 38.1193C110.244 37.6932 110.585 37.1712 110.82 36.5533L117.116 36.9688C116.796 38.4815 116.141 39.8026 115.15 40.9318C114.17 42.0504 112.902 42.924 111.347 43.5526C109.802 44.1705 108.018 44.4794 105.994 44.4794ZM126.951 19.4545L131.458 28.0359L136.076 19.4545H143.059L135.948 31.7273L143.251 44H136.3L131.458 35.5146L126.696 44H119.665L126.951 31.7273L119.92 19.4545H126.951ZM162.843 33.549V19.4545H169.65V44H163.114V39.5415H162.859C162.305 40.9798 161.383 42.1357 160.094 43.0092C158.816 43.8828 157.255 44.3196 155.412 44.3196C153.771 44.3196 152.328 43.9467 151.081 43.201C149.835 42.4553 148.86 41.3952 148.157 40.021C147.465 38.6467 147.113 37.0007 147.102 35.0831V19.4545H153.91V33.8686C153.921 35.3175 154.309 36.4627 155.076 37.3043C155.843 38.146 156.872 38.5668 158.161 38.5668C158.981 38.5668 159.748 38.3803 160.462 38.0075C161.176 37.6239 161.751 37.0593 162.188 36.3136C162.635 35.5678 162.853 34.6463 162.843 33.549ZM195.518 26.4538L189.286 26.8374C189.179 26.3047 188.95 25.8253 188.599 25.3991C188.247 24.9624 187.784 24.6161 187.208 24.3604C186.644 24.0941 185.967 23.9609 185.179 23.9609C184.124 23.9609 183.235 24.1847 182.51 24.6321C181.786 25.0689 181.424 25.6548 181.424 26.3899C181.424 26.9759 181.658 27.4712 182.127 27.8761C182.596 28.2809 183.4 28.6058 184.54 28.8509L188.982 29.7457C191.369 30.2358 193.148 31.0241 194.32 32.1108C195.491 33.1974 196.077 34.625 196.077 36.3935C196.077 38.0021 195.603 39.4137 194.655 40.6282C193.718 41.8427 192.429 42.7908 190.788 43.4727C189.158 44.1438 187.278 44.4794 185.147 44.4794C181.898 44.4794 179.309 43.8029 177.381 42.4499C175.463 41.0863 174.339 39.2326 174.009 36.8888L180.705 36.5373C180.907 37.5281 181.397 38.2844 182.175 38.8065C182.952 39.3178 183.949 39.5735 185.163 39.5735C186.356 39.5735 187.315 39.3445 188.039 38.8864C188.775 38.4176 189.147 37.8157 189.158 37.0806C189.147 36.4627 188.886 35.9567 188.375 35.5625C187.864 35.1577 187.075 34.8487 186.01 34.6357L181.759 33.7887C179.362 33.3093 177.578 32.4783 176.406 31.2958C175.245 30.1133 174.664 28.6058 174.664 26.7734C174.664 25.1967 175.09 23.8384 175.942 22.6985C176.805 21.5586 178.015 20.6797 179.57 20.0618C181.136 19.4439 182.968 19.1349 185.067 19.1349C188.167 19.1349 190.607 19.7901 192.386 21.1005C194.176 22.4109 195.22 24.1953 195.518 26.4538Z" fill="black"/>
</svg>
